<?xml version="1.0" encoding="UTF-8" standalone="no"?>
<!DOCTYPE svg PUBLIC "-//W3C//DTD SVG 1.1//EN"
 "http://www.w3.org/Graphics/SVG/1.1/DTD/svg11.dtd">
<!-- Generated by graphviz version 2.48.0 (20210717.1556)
 -->
<!-- Title: G Pages: 1 -->
<svg width="152pt" height="188pt"
 viewBox="0.00 0.00 152.00 188.00" xmlns="http://www.w3.org/2000/svg" xmlns:xlink="http://www.w3.org/1999/xlink">
<g id="graph0" class="graph" transform="scale(1 1) rotate(0) translate(4 184)">
<title>G</title>
<polygon fill="white" stroke="transparent" points="-4,4 -4,-184 148,-184 148,4 -4,4"/>
<!-- 149558712754 -->
<g id="node1" class="node">
<title>149558712754</title>
<ellipse fill="none" stroke="black" cx="99" cy="-162" rx="18" ry="18"/>
<text text-anchor="middle" x="99" y="-158.3" font-family="Times New Roman,serif" font-size="14.00">4</text>
</g>
<!-- 149558712709 -->
<g id="node2" class="node">
<title>149558712709</title>
<ellipse fill="none" stroke="black" cx="72" cy="-90" rx="18" ry="18"/>
<text text-anchor="middle" x="72" y="-86.3" font-family="Times New Roman,serif" font-size="14.00">2</text>
</g>
<!-- 149558712754&#45;&gt;149558712709 -->
<g id="edge1" class="edge">
<title>149558712754&#45;&gt;149558712709</title>
<path fill="none" stroke="black" d="M92.74,-144.76C89.5,-136.37 85.47,-125.93 81.83,-116.5"/>
<polygon fill="black" stroke="black" points="85.09,-115.22 78.23,-107.15 78.56,-117.74 85.09,-115.22"/>
</g>
<!-- 149558712778 -->
<g id="node3" class="node">
<title>149558712778</title>
<ellipse fill="none" stroke="black" cx="126" cy="-90" rx="18" ry="18"/>
<text text-anchor="middle" x="126" y="-86.3" font-family="Times New Roman,serif" font-size="14.00">5</text>
</g>
<!-- 149558712754&#45;&gt;149558712778 -->
<g id="edge2" class="edge">
<title>149558712754&#45;&gt;149558712778</title>
<path fill="none" stroke="black" d="M105.26,-144.76C108.5,-136.37 112.53,-125.93 116.17,-116.5"/>
<polygon fill="black" stroke="black" points="119.44,-117.74 119.77,-107.15 112.91,-115.22 119.44,-117.74"/>
</g>
<!-- 149555932980 -->
<g id="node4" class="node">
<title>149555932980</title>
<ellipse fill="none" stroke="black" cx="18" cy="-18" rx="18" ry="18"/>
<text text-anchor="middle" x="18" y="-14.3" font-family="Times New Roman,serif" font-size="14.00">1</text>
</g>
<!-- 149558712709&#45;&gt;149555932980 -->
<g id="edge3" class="edge">
<title>149558712709&#45;&gt;149555932980</title>
<path fill="none" stroke="black" d="M61.33,-75.17C53.79,-65.39 43.52,-52.08 34.87,-40.87"/>
<polygon fill="black" stroke="black" points="37.53,-38.58 28.65,-32.8 31.98,-42.86 37.53,-38.58"/>
</g>
<!-- 149558712736 -->
<g id="node5" class="node">
<title>149558712736</title>
<ellipse fill="none" stroke="black" cx="72" cy="-18" rx="18" ry="18"/>
<text text-anchor="middle" x="72" y="-14.3" font-family="Times New Roman,serif" font-size="14.00">3</text>
</g>
<!-- 149558712709&#45;&gt;149558712736 -->
<g id="edge4" class="edge">
<title>149558712709&#45;&gt;149558712736</title>
<path fill="none" stroke="black" d="M72,-71.7C72,-63.98 72,-54.71 72,-46.11"/>
<polygon fill="black" stroke="black" points="75.5,-46.1 72,-36.1 68.5,-46.1 75.5,-46.1"/>
</g>
<!-- 149558712796 -->
<g id="node6" class="node">
<title>149558712796</title>
<ellipse fill="none" stroke="black" cx="126" cy="-18" rx="18" ry="18"/>
<text text-anchor="middle" x="126" y="-14.3" font-family="Times New Roman,serif" font-size="14.00">6</text>
</g>
<!-- 149558712778&#45;&gt;149558712796 -->
<g id="edge5" class="edge">
<title>149558712778&#45;&gt;149558712796</title>
<path fill="none" stroke="black" d="M126,-71.7C126,-63.98 126,-54.71 126,-46.11"/>
<polygon fill="black" stroke="black" points="129.5,-46.1 126,-36.1 122.5,-46.1 129.5,-46.1"/>
</g>
</g>
</svg>
