<?xml version="1.0" encoding="UTF-8" standalone="no"?>
<!DOCTYPE svg PUBLIC "-//W3C//DTD SVG 1.1//EN"
 "http://www.w3.org/Graphics/SVG/1.1/DTD/svg11.dtd">
<!-- Generated by graphviz version 2.48.0 (20210717.1556)
 -->
<!-- Title: G Pages: 1 -->
<svg width="98pt" height="116pt"
 viewBox="0.00 0.00 98.00 116.00" xmlns="http://www.w3.org/2000/svg" xmlns:xlink="http://www.w3.org/1999/xlink">
<g id="graph0" class="graph" transform="scale(1 1) rotate(0) translate(4 112)">
<title>G</title>
<polygon fill="white" stroke="transparent" points="-4,4 -4,-112 94,-112 94,4 -4,4"/>
<!-- 171791738594 -->
<g id="node1" class="node">
<title>171791738594</title>
<ellipse fill="none" stroke="black" cx="45" cy="-90" rx="18" ry="18"/>
<text text-anchor="middle" x="45" y="-86.3" font-family="Times New Roman,serif" font-size="14.00">2</text>
</g>
<!-- 171791738621 -->
<g id="node2" class="node">
<title>171791738621</title>
<ellipse fill="none" stroke="black" cx="18" cy="-18" rx="18" ry="18"/>
<text text-anchor="middle" x="18" y="-14.3" font-family="Times New Roman,serif" font-size="14.00">1</text>
</g>
<!-- 171791738594&#45;&gt;171791738621 -->
<g id="edge1" class="edge">
<title>171791738594&#45;&gt;171791738621</title>
<path fill="none" stroke="black" d="M38.74,-72.76C35.5,-64.37 31.47,-53.93 27.83,-44.5"/>
<polygon fill="black" stroke="black" points="31.09,-43.22 24.23,-35.15 24.56,-45.74 31.09,-43.22"/>
</g>
<!-- 171791738558 -->
<g id="node3" class="node">
<title>171791738558</title>
<ellipse fill="none" stroke="black" cx="72" cy="-18" rx="18" ry="18"/>
<text text-anchor="middle" x="72" y="-14.3" font-family="Times New Roman,serif" font-size="14.00">3</text>
</g>
<!-- 171791738594&#45;&gt;171791738558 -->
<g id="edge2" class="edge">
<title>171791738594&#45;&gt;171791738558</title>
<path fill="none" stroke="black" d="M51.26,-72.76C54.5,-64.37 58.53,-53.93 62.17,-44.5"/>
<polygon fill="black" stroke="black" points="65.44,-45.74 65.77,-35.15 58.91,-43.22 65.44,-45.74"/>
</g>
</g>
</svg>
